# xmcd
#
# Track frame offsets: 
#        150
#        13950
#        30900
#        58650
#        70737
#        98112
#        119987
#        132225
#        148037
#        193325
#        203775
#        228812
#        280012
#        316312
#
# Disc length: 4393 seconds
#
# Revision: 0
# Processed by: cddbd v1.5.2PL0 Copyright (c) Steve Scherf et al.
# Submitted via: ExactAudioCopyFreeDBPlugin 1.0
#
DISCID=ce11270e
DTITLE=Jimi Hendrix - House of the Rising Sun
DYEAR=1900
DGENRE=Rock
TTITLE0=Come on Baby (part 1)
TTITLE1=Come on Baby (part 2)
TTITLE2=Night Life
TTITLE3=You Got It
TTITLE4=Woke Up in the Morning
TTITLE5=Voices
TTITLE6=Whipper
TTITLE7=Soul Food
TTITLE8=Get that Feeling
TTITLE9=You Don't Want Me
TTITLE10=House of the Rising Sun
TTITLE11=Let the God Sing
TTITLE12=F.H.I.T.A.
TTITLE13=Strange Things
EXTD=
EXTT0=
EXTT1=
EXTT2=
EXTT3=
EXTT4=
EXTT5=
EXTT6=
EXTT7=
EXTT8=
EXTT9=
EXTT10=
EXTT11=
EXTT12=
EXTT13=
PLAYORDER=
